<svg xmlns="http://www.w3.org/2000/svg" xmlns:xlink="http://www.w3.org/1999/xlink" width="500" zoomAndPan="magnify" viewBox="0 0 375 374.999991" height="500" preserveAspectRatio="xMidYMid meet" version="1.0"><defs><filter x="0%" y="0%" width="100%" height="100%" id="d81930976f"><feColorMatrix values="0 0 0 0 1 0 0 0 0 1 0 0 0 0 1 0 0 0 1 0" color-interpolation-filters="sRGB"/></filter><g/><clipPath id="1ad6276d7a"><path d="M 37.5 67.171875 L 337.5 67.171875 L 337.5 307.828125 L 37.5 307.828125 Z M 37.5 67.171875 " clip-rule="nonzero"/></clipPath><clipPath id="48df92dc92"><path d="M 187.5 67.171875 C 104.65625 67.171875 37.5 121.042969 37.5 187.5 C 37.5 253.957031 104.65625 307.828125 187.5 307.828125 C 270.34375 307.828125 337.5 253.957031 337.5 187.5 C 337.5 121.042969 270.34375 67.171875 187.5 67.171875 " clip-rule="nonzero"/></clipPath><mask id="dfa6777393"><g filter="url(#d81930976f)"><rect x="-37.5" width="450" fill="#000000" y="-37.499999" height="449.999989" fill-opacity="0.498"/></g></mask><clipPath id="20048c70e4"><path d="M 0.996094 0.789062 L 282.003906 0.789062 L 282.003906 226.210938 L 0.996094 226.210938 Z M 0.996094 0.789062 " clip-rule="nonzero"/></clipPath><clipPath id="65237edf1f"><path d="M 141.5 0.789062 C 63.902344 0.789062 0.996094 51.25 0.996094 113.5 C 0.996094 175.75 63.902344 226.210938 141.5 226.210938 C 219.097656 226.210938 282.003906 175.75 282.003906 113.5 C 282.003906 51.25 219.097656 0.789062 141.5 0.789062 " clip-rule="nonzero"/></clipPath><clipPath id="8d52a93298"><rect x="0" width="283" y="0" height="227"/></clipPath><clipPath id="efd4243801"><path d="M 42.988281 170.78125 L 332.011719 170.78125 L 332.011719 204.21875 L 42.988281 204.21875 Z M 42.988281 170.78125 " clip-rule="nonzero"/></clipPath><clipPath id="27348c9f15"><path d="M 107.238281 122.5 L 267.9375 122.5 L 267.9375 251.761719 L 107.238281 251.761719 Z M 107.238281 122.5 " clip-rule="nonzero"/></clipPath><clipPath id="3bb2b08041"><path d="M 135 113.015625 L 256 113.015625 L 256 242 L 135 242 Z M 135 113.015625 " clip-rule="nonzero"/></clipPath><clipPath id="a6b4db2d4e"><path d="M 152.699219 144.5 L 276.738281 144.5 L 276.738281 198.339844 L 152.699219 198.339844 Z M 152.699219 144.5 " clip-rule="nonzero"/></clipPath></defs><rect x="-37.5" width="450" fill="#ffffff" y="-37.499999" height="449.999989" fill-opacity="1"/><rect x="-37.5" width="450" fill="#ffffff" y="-37.499999" height="449.999989" fill-opacity="1"/><rect x="-37.5" width="450" fill="#ffffff" y="-37.499999" height="449.999989" fill-opacity="1"/><g clip-path="url(#1ad6276d7a)"><g clip-path="url(#48df92dc92)"><path fill="#252525" d="M 37.5 67.171875 L 337.5 67.171875 L 337.5 307.828125 L 37.5 307.828125 Z M 37.5 67.171875 " fill-opacity="1" fill-rule="nonzero"/></g></g><g mask="url(#dfa6777393)"><g transform="matrix(1, 0, 0, 1, 46, 74)"><g clip-path="url(#8d52a93298)"><g clip-path="url(#20048c70e4)"><g clip-path="url(#65237edf1f)"><path fill="#7c898b" d="M 0.996094 0.789062 L 282.003906 0.789062 L 282.003906 226.210938 L 0.996094 226.210938 Z M 0.996094 0.789062 " fill-opacity="1" fill-rule="nonzero"/></g></g></g></g></g><g clip-path="url(#efd4243801)"><path fill="#252525" d="M 42.988281 170.78125 L 332.011719 170.78125 L 332.011719 204.21875 L 42.988281 204.21875 Z M 42.988281 170.78125 " fill-opacity="1" fill-rule="nonzero"/></g><g fill="#ffffff" fill-opacity="1"><g transform="translate(61.118215, 191.999987)"><g><path d="M 7.015625 0 L 1.078125 0 L 1.078125 -10 L 7.015625 -10 L 7.015625 -7.828125 L 3.78125 -7.828125 L 3.78125 -6.25 L 6.78125 -6.25 L 6.78125 -4.09375 L 3.78125 -4.09375 L 3.78125 -2.203125 L 7.015625 -2.203125 Z M 7.015625 0 "/></g></g></g><g fill="#ffffff" fill-opacity="1"><g transform="translate(68.447521, 191.999987)"><g><path d="M 7.609375 -3.03125 C 7.609375 -2.414062 7.453125 -1.863281 7.140625 -1.375 C 6.828125 -0.894531 6.375 -0.519531 5.78125 -0.25 C 5.1875 0.0078125 4.492188 0.140625 3.703125 0.140625 C 3.035156 0.140625 2.472656 0.09375 2.015625 0 C 1.566406 -0.09375 1.097656 -0.257812 0.609375 -0.5 L 0.609375 -2.90625 C 1.128906 -2.632812 1.664062 -2.425781 2.21875 -2.28125 C 2.78125 -2.132812 3.289062 -2.0625 3.75 -2.0625 C 4.15625 -2.0625 4.453125 -2.128906 4.640625 -2.265625 C 4.828125 -2.398438 4.921875 -2.578125 4.921875 -2.796875 C 4.921875 -2.941406 4.878906 -3.0625 4.796875 -3.15625 C 4.722656 -3.257812 4.601562 -3.363281 4.4375 -3.46875 C 4.269531 -3.570312 3.828125 -3.785156 3.109375 -4.109375 C 2.460938 -4.410156 1.972656 -4.695312 1.640625 -4.96875 C 1.316406 -5.25 1.078125 -5.566406 0.921875 -5.921875 C 0.765625 -6.285156 0.6875 -6.71875 0.6875 -7.21875 C 0.6875 -8.132812 1.019531 -8.847656 1.6875 -9.359375 C 2.351562 -9.878906 3.273438 -10.140625 4.453125 -10.140625 C 5.484375 -10.140625 6.535156 -9.898438 7.609375 -9.421875 L 6.78125 -7.328125 C 5.851562 -7.765625 5.050781 -7.984375 4.375 -7.984375 C 4.019531 -7.984375 3.757812 -7.921875 3.59375 -7.796875 C 3.4375 -7.671875 3.359375 -7.515625 3.359375 -7.328125 C 3.359375 -7.140625 3.457031 -6.96875 3.65625 -6.8125 C 3.863281 -6.65625 4.414062 -6.375 5.3125 -5.96875 C 6.175781 -5.570312 6.773438 -5.148438 7.109375 -4.703125 C 7.441406 -4.265625 7.609375 -3.707031 7.609375 -3.03125 Z M 7.609375 -3.03125 "/></g></g></g><g fill="#ffffff" fill-opacity="1"><g transform="translate(76.173091, 191.999987)"><g><path d="M 5.484375 0 L 2.796875 0 L 2.796875 -7.78125 L 0.34375 -7.78125 L 0.34375 -10 L 7.921875 -10 L 7.921875 -7.78125 L 5.484375 -7.78125 Z M 5.484375 0 "/></g></g></g><g fill="#ffffff" fill-opacity="1"><g transform="translate(84.08996, 191.999987)"><g><path d="M 9.5625 -5.203125 C 9.5625 -3.535156 9.101562 -2.25 8.1875 -1.34375 C 7.269531 -0.445312 5.976562 0 4.3125 0 L 1.078125 0 L 1.078125 -10 L 4.546875 -10 C 6.148438 -10 7.382812 -9.585938 8.25 -8.765625 C 9.125 -7.941406 9.5625 -6.753906 9.5625 -5.203125 Z M 6.765625 -5.109375 C 6.765625 -6.023438 6.582031 -6.703125 6.21875 -7.140625 C 5.851562 -7.585938 5.300781 -7.8125 4.5625 -7.8125 L 3.78125 -7.8125 L 3.78125 -2.21875 L 4.375 -2.21875 C 5.195312 -2.21875 5.800781 -2.453125 6.1875 -2.921875 C 6.570312 -3.398438 6.765625 -4.128906 6.765625 -5.109375 Z M 6.765625 -5.109375 "/></g></g></g><g fill="#ffffff" fill-opacity="1"><g transform="translate(281.383579, 191.999987)"><g><path d="M 7.671875 0 L 0.421875 0 L 0.421875 -1.78125 L 2.859375 -4.25 C 3.554688 -4.976562 4.007812 -5.472656 4.21875 -5.734375 C 4.4375 -6.003906 4.585938 -6.234375 4.671875 -6.421875 C 4.753906 -6.617188 4.796875 -6.820312 4.796875 -7.03125 C 4.796875 -7.289062 4.710938 -7.492188 4.546875 -7.640625 C 4.378906 -7.796875 4.140625 -7.875 3.828125 -7.875 C 3.515625 -7.875 3.195312 -7.78125 2.875 -7.59375 C 2.5625 -7.414062 2.203125 -7.148438 1.796875 -6.796875 L 0.3125 -8.53125 C 0.820312 -9 1.253906 -9.332031 1.609375 -9.53125 C 1.960938 -9.726562 2.34375 -9.878906 2.75 -9.984375 C 3.164062 -10.085938 3.628906 -10.140625 4.140625 -10.140625 C 4.785156 -10.140625 5.363281 -10.023438 5.875 -9.796875 C 6.382812 -9.566406 6.78125 -9.238281 7.0625 -8.8125 C 7.34375 -8.394531 7.484375 -7.925781 7.484375 -7.40625 C 7.484375 -7.007812 7.429688 -6.644531 7.328125 -6.3125 C 7.234375 -5.976562 7.082031 -5.648438 6.875 -5.328125 C 6.664062 -5.015625 6.390625 -4.675781 6.046875 -4.3125 C 5.710938 -3.957031 4.992188 -3.285156 3.890625 -2.296875 L 3.890625 -2.234375 L 7.671875 -2.234375 Z M 7.671875 0 "/></g></g></g><g fill="#ffffff" fill-opacity="1"><g transform="translate(289.232127, 191.999987)"><g><path d="M 7.71875 -4.984375 C 7.71875 -3.210938 7.421875 -1.914062 6.828125 -1.09375 C 6.234375 -0.269531 5.328125 0.140625 4.109375 0.140625 C 2.910156 0.140625 2.007812 -0.285156 1.40625 -1.140625 C 0.800781 -2.003906 0.5 -3.285156 0.5 -4.984375 C 0.5 -6.765625 0.789062 -8.066406 1.375 -8.890625 C 1.96875 -9.722656 2.878906 -10.140625 4.109375 -10.140625 C 5.296875 -10.140625 6.191406 -9.707031 6.796875 -8.84375 C 7.410156 -7.976562 7.71875 -6.691406 7.71875 -4.984375 Z M 3.171875 -4.984375 C 3.171875 -3.847656 3.242188 -3.066406 3.390625 -2.640625 C 3.535156 -2.222656 3.773438 -2.015625 4.109375 -2.015625 C 4.441406 -2.015625 4.675781 -2.234375 4.8125 -2.671875 C 4.957031 -3.109375 5.03125 -3.878906 5.03125 -4.984375 C 5.03125 -6.085938 4.957031 -6.863281 4.8125 -7.3125 C 4.664062 -7.757812 4.429688 -7.984375 4.109375 -7.984375 C 3.773438 -7.984375 3.535156 -7.765625 3.390625 -7.328125 C 3.242188 -6.898438 3.171875 -6.117188 3.171875 -4.984375 Z M 3.171875 -4.984375 "/></g></g></g><g fill="#ffffff" fill-opacity="1"><g transform="translate(297.080674, 191.999987)"><g><path d="M 6.4375 0 L 3.703125 0 L 3.703125 -5.296875 C 3.703125 -5.929688 3.710938 -6.519531 3.734375 -7.0625 C 3.566406 -6.851562 3.359375 -6.632812 3.109375 -6.40625 L 1.96875 -5.46875 L 0.578125 -7.203125 L 4 -10 L 6.4375 -10 Z M 6.4375 0 "/></g></g></g><g fill="#ffffff" fill-opacity="1"><g transform="translate(304.929222, 191.999987)"><g><path d="M 1.421875 0 L 4.859375 -7.75 L 0.53125 -7.75 L 0.53125 -9.984375 L 7.75 -9.984375 L 7.75 -8.390625 L 4.21875 0 Z M 1.421875 0 "/></g></g></g><g fill="#ffffff" fill-opacity="1"><g transform="translate(138.123381, 119.80186)"><g><path d="M -5.859375 -23.703125 L 2.09375 -26.609375 C 5.1875 -27.734375 7.648438 -28.109375 9.484375 -27.734375 C 11.328125 -27.359375 12.601562 -26.203125 13.3125 -24.265625 C 13.78125 -22.984375 13.851562 -21.769531 13.53125 -20.625 C 13.207031 -19.488281 12.554688 -18.597656 11.578125 -17.953125 L 11.640625 -17.796875 C 13.191406 -17.941406 14.441406 -17.691406 15.390625 -17.046875 C 16.335938 -16.398438 17.066406 -15.378906 17.578125 -13.984375 C 18.335938 -11.910156 18.15625 -9.992188 17.03125 -8.234375 C 15.914062 -6.484375 14.015625 -5.117188 11.328125 -4.140625 L 2.46875 -0.90625 Z M 3.5 -17.203125 L 5.359375 -17.875 C 6.234375 -18.195312 6.84375 -18.628906 7.1875 -19.171875 C 7.539062 -19.710938 7.585938 -20.34375 7.328125 -21.0625 C 6.859375 -22.34375 5.660156 -22.628906 3.734375 -21.921875 L 2 -21.296875 Z M 5.140625 -12.703125 L 6.890625 -7.90625 L 9.046875 -8.6875 C 10.972656 -9.394531 11.640625 -10.5625 11.046875 -12.1875 C 10.765625 -12.945312 10.296875 -13.4375 9.640625 -13.65625 C 8.984375 -13.875 8.164062 -13.800781 7.1875 -13.4375 Z M 5.140625 -12.703125 "/></g></g></g><g fill="#ffffff" fill-opacity="1"><g transform="translate(158.188972, 112.761714)"><g><path d="M 2.5625 -0.546875 L -2.515625 -24.28125 L 3.9375 -25.671875 L 9.015625 -1.9375 Z M 2.5625 -0.546875 "/></g></g></g><g fill="#ffffff" fill-opacity="1"><g transform="translate(167.988232, 110.029836)"><g><path d="M 11.453125 -14.96875 L 21.90625 -15.609375 L 22.71875 -2.546875 C 19.945312 -1.398438 16.859375 -0.722656 13.453125 -0.515625 C 9.722656 -0.273438 6.769531 -1.171875 4.59375 -3.203125 C 2.425781 -5.242188 1.21875 -8.269531 0.96875 -12.28125 C 0.726562 -16.195312 1.648438 -19.3125 3.734375 -21.625 C 5.828125 -23.945312 8.882812 -25.234375 12.90625 -25.484375 C 14.425781 -25.578125 15.867188 -25.519531 17.234375 -25.3125 C 18.609375 -25.101562 19.816406 -24.8125 20.859375 -24.4375 L 19.09375 -19.1875 C 17.300781 -19.9375 15.363281 -20.242188 13.28125 -20.109375 C 11.375 -19.992188 9.9375 -19.28125 8.96875 -17.96875 C 8 -16.65625 7.585938 -14.84375 7.734375 -12.53125 C 7.867188 -10.28125 8.445312 -8.585938 9.46875 -7.453125 C 10.5 -6.316406 11.898438 -5.804688 13.671875 -5.921875 C 14.640625 -5.984375 15.53125 -6.132812 16.34375 -6.375 L 16.09375 -10.171875 L 11.765625 -9.90625 Z M 11.453125 -14.96875 "/></g></g></g><g fill="#ffffff" fill-opacity="1"><g transform="translate(191.512999, 109.003473)"><g/></g></g><g fill="#ffffff" fill-opacity="1"><g transform="translate(199.352012, 109.47553)"><g><path d="M -0.484375 7.640625 C -1.660156 7.453125 -2.765625 7.15625 -3.796875 6.75 L -3 1.71875 C -2.65625 1.84375 -2.289062 1.976562 -1.90625 2.125 C -1.53125 2.269531 -1.113281 2.378906 -0.65625 2.453125 C 0.414062 2.628906 1.226562 2.429688 1.78125 1.859375 C 2.34375 1.285156 2.75 0.210938 3 -1.359375 L 6.515625 -23.53125 L 13.03125 -22.5 L 9.609375 -0.875 C 9.085938 2.375 7.984375 4.71875 6.296875 6.15625 C 4.617188 7.59375 2.359375 8.085938 -0.484375 7.640625 Z M -0.484375 7.640625 "/></g></g></g><g fill="#ffffff" fill-opacity="1"><g transform="translate(210.151787, 111.185239)"><g><path d="M 13.578125 -21.625 L 10.78125 -13.28125 L 6.375 -14.375 L 7.84375 -23.0625 Z M 13.578125 -21.625 "/></g></g></g><g fill="#ffffff" fill-opacity="1"><g transform="translate(218.545767, 112.903118)"><g><path d="M 19.921875 -0.3125 C 19.378906 1.09375 18.539062 2.207031 17.40625 3.03125 C 16.28125 3.851562 14.929688 4.304688 13.359375 4.390625 C 11.785156 4.484375 10.09375 4.1875 8.28125 3.5 C 6.78125 2.925781 5.550781 2.335938 4.59375 1.734375 C 3.644531 1.128906 2.722656 0.351562 1.828125 -0.59375 L 3.90625 -6.0625 C 4.84375 -5.007812 5.878906 -4.070312 7.015625 -3.25 C 8.148438 -2.4375 9.242188 -1.832031 10.296875 -1.4375 C 11.210938 -1.082031 11.941406 -0.984375 12.484375 -1.140625 C 13.023438 -1.296875 13.390625 -1.625 13.578125 -2.125 C 13.691406 -2.425781 13.707031 -2.722656 13.625 -3.015625 C 13.539062 -3.316406 13.351562 -3.660156 13.0625 -4.046875 C 12.769531 -4.429688 11.945312 -5.300781 10.59375 -6.65625 C 9.382812 -7.894531 8.53125 -8.96875 8.03125 -9.875 C 7.53125 -10.78125 7.253906 -11.707031 7.203125 -12.65625 C 7.160156 -13.613281 7.347656 -14.65625 7.765625 -15.78125 C 8.566406 -17.875 9.953125 -19.210938 11.921875 -19.796875 C 13.890625 -20.390625 16.203125 -20.179688 18.859375 -19.171875 C 21.203125 -18.273438 23.390625 -16.816406 25.421875 -14.796875 L 21.734375 -10.796875 C 19.984375 -12.578125 18.34375 -13.757812 16.8125 -14.34375 C 16.007812 -14.644531 15.375 -14.722656 14.90625 -14.578125 C 14.4375 -14.441406 14.125 -14.164062 13.96875 -13.75 C 13.800781 -13.300781 13.878906 -12.8125 14.203125 -12.28125 C 14.523438 -11.757812 15.53125 -10.644531 17.21875 -8.9375 C 18.832031 -7.3125 19.832031 -5.847656 20.21875 -4.546875 C 20.601562 -3.253906 20.503906 -1.84375 19.921875 -0.3125 Z M 19.921875 -0.3125 "/></g></g></g><g fill="#ffffff" fill-opacity="1"><g transform="translate(79.679945, 226.262665)"><g><path d="M 9.046875 11.890625 L 6.5 8.546875 L 11.515625 4.71875 L 8.578125 0.84375 L 3.5625 4.671875 L 1.015625 1.328125 L 13.328125 -8.046875 L 15.875 -4.703125 L 11.3125 -1.21875 L 14.25 2.65625 L 18.8125 -0.828125 L 21.359375 2.515625 Z M 9.046875 11.890625 "/></g></g></g><g fill="#ffffff" fill-opacity="1"><g transform="translate(90.3983, 240.186133)"><g><path d="M 7.875 7.90625 L 9.40625 5.328125 L 5.859375 1.765625 L 3.234375 3.25 L 0 0 L 14.5625 -7.375 L 18.5 -3.421875 L 11.09375 11.15625 Z M 11.203125 2.28125 L 12.5625 0.03125 C 12.84375 -0.476562 13.222656 -1.128906 13.703125 -1.921875 C 14.179688 -2.710938 14.53125 -3.269531 14.75 -3.59375 C 14.445312 -3.382812 13.9375 -3.050781 13.21875 -2.59375 C 12.5 -2.144531 11.054688 -1.296875 8.890625 -0.046875 Z M 11.203125 2.28125 "/></g></g></g><g fill="#ffffff" fill-opacity="1"><g transform="translate(102.215831, 252.066497)"><g><path d="M 13.0625 9.921875 L 8.703125 6.609375 L 10.78125 -5.5 L 10.71875 -5.5625 C 9.78125 -4.113281 9.039062 -3.023438 8.5 -2.296875 L 4.28125 3.25 L 1.328125 1.015625 L 10.671875 -11.3125 L 15.015625 -8.015625 L 13.03125 3.953125 L 13.078125 3.984375 C 13.929688 2.679688 14.644531 1.65625 15.21875 0.90625 L 19.4375 -4.671875 L 22.40625 -2.40625 Z M 13.0625 9.921875 "/></g></g></g><g fill="#ffffff" fill-opacity="1"><g transform="translate(117.51156, 263.488899)"><g><path d="M 16.859375 0.1875 C 15.597656 2.4375 14.003906 3.820312 12.078125 4.34375 C 10.160156 4.875 8.078125 4.507812 5.828125 3.25 L 1.453125 0.8125 L 9 -12.6875 L 13.6875 -10.0625 C 15.84375 -8.851562 17.203125 -7.363281 17.765625 -5.59375 C 18.328125 -3.832031 18.023438 -1.90625 16.859375 0.1875 Z M 13 -1.796875 C 13.695312 -3.035156 13.960938 -4.09375 13.796875 -4.96875 C 13.640625 -5.84375 13.0625 -6.554688 12.0625 -7.109375 L 11.015625 -7.703125 L 6.78125 -0.125 L 7.59375 0.328125 C 8.695312 0.941406 9.6875 1.070312 10.5625 0.71875 C 11.445312 0.363281 12.257812 -0.472656 13 -1.796875 Z M 13 -1.796875 "/></g></g></g><g fill="#ffffff" fill-opacity="1"><g transform="translate(132.231361, 271.602672)"><g><path d="M 10.328125 -6.3125 L 14.96875 -10.625 L 19.15625 -8.90625 L 10.890625 -2.109375 L 8.609375 3.5 L 4.71875 1.921875 L 6.953125 -3.5625 L 5.828125 -14.328125 L 10.046875 -12.609375 Z M 10.328125 -6.3125 "/></g></g></g><g fill="#ffffff" fill-opacity="1"><g transform="translate(146.509384, 277.574466)"><g><path d="M 8.15625 2 L 7.75 -9.5625 L 7.65625 -9.578125 C 7.351562 -7.710938 7.078125 -6.269531 6.828125 -5.25 L 5.21875 1.28125 L 1.625 0.40625 L 5.3125 -14.609375 L 10.71875 -13.28125 L 11.25 -1.859375 L 11.3125 -1.84375 L 17.015625 -11.734375 L 22.421875 -10.40625 L 18.734375 4.609375 L 15 3.6875 L 16.625 -2.890625 C 16.707031 -3.234375 16.804688 -3.613281 16.921875 -4.03125 C 17.035156 -4.445312 17.332031 -5.460938 17.8125 -7.078125 L 17.71875 -7.09375 L 12.03125 2.953125 Z M 8.15625 2 "/></g></g></g><g fill="#ffffff" fill-opacity="1"><g transform="translate(167.981659, 282.56555)"><g><path d="M 11.109375 1.015625 L 10.625 -1.953125 L 5.625 -2.40625 L 4.578125 0.421875 L 0 0 L 6.4375 -15.015625 L 11.984375 -14.5 L 15.671875 1.421875 Z M 10.0625 -5.4375 L 9.640625 -8.046875 C 9.535156 -8.609375 9.410156 -9.347656 9.265625 -10.265625 C 9.128906 -11.179688 9.039062 -11.832031 9 -12.21875 C 8.90625 -11.863281 8.726562 -11.28125 8.46875 -10.46875 C 8.207031 -9.664062 7.648438 -8.085938 6.796875 -5.734375 Z M 10.0625 -5.4375 "/></g></g></g><g fill="#ffffff" fill-opacity="1"><g transform="translate(184.669777, 284.094153)"><g><path d="M 16.390625 -0.78125 L 10.90625 -0.515625 L 4.75 -11.140625 L 4.65625 -11.140625 C 4.875 -9.421875 5.003906 -8.109375 5.046875 -7.203125 L 5.375 -0.25 L 1.671875 -0.078125 L 0.9375 -15.53125 L 6.375 -15.796875 L 12.53125 -5.328125 L 12.59375 -5.328125 C 12.40625 -6.878906 12.289062 -8.125 12.25 -9.0625 L 11.921875 -16.0625 L 15.65625 -16.234375 Z M 16.390625 -0.78125 "/></g></g></g><g fill="#ffffff" fill-opacity="1"><g transform="translate(203.391289, 282.864196)"><g/></g></g><g fill="#ffffff" fill-opacity="1"><g transform="translate(209.515049, 282.079366)"><g><path d="M 10.484375 -7.15625 C 10.691406 -6.21875 10.640625 -5.332031 10.328125 -4.5 C 10.015625 -3.664062 9.453125 -2.941406 8.640625 -2.328125 C 7.835938 -1.722656 6.832031 -1.289062 5.625 -1.03125 C 4.632812 -0.800781 3.78125 -0.679688 3.0625 -0.671875 C 2.34375 -0.671875 1.578125 -0.765625 0.765625 -0.953125 L -0.03125 -4.578125 C 0.820312 -4.359375 1.695312 -4.226562 2.59375 -4.1875 C 3.488281 -4.15625 4.285156 -4.21875 4.984375 -4.375 C 5.585938 -4.507812 6.003906 -4.710938 6.234375 -4.984375 C 6.472656 -5.253906 6.554688 -5.554688 6.484375 -5.890625 C 6.429688 -6.097656 6.332031 -6.265625 6.1875 -6.390625 C 6.050781 -6.515625 5.835938 -6.628906 5.546875 -6.734375 C 5.253906 -6.835938 4.507812 -7.015625 3.3125 -7.265625 C 2.226562 -7.492188 1.390625 -7.757812 0.796875 -8.0625 C 0.210938 -8.375 -0.253906 -8.773438 -0.609375 -9.265625 C -0.960938 -9.765625 -1.222656 -10.382812 -1.390625 -11.125 C -1.703125 -12.519531 -1.4375 -13.71875 -0.59375 -14.71875 C 0.25 -15.71875 1.550781 -16.414062 3.3125 -16.8125 C 4.882812 -17.15625 6.554688 -17.148438 8.328125 -16.796875 L 7.796875 -13.375 C 6.234375 -13.695312 4.941406 -13.742188 3.921875 -13.515625 C 3.390625 -13.398438 3.019531 -13.222656 2.8125 -12.984375 C 2.613281 -12.742188 2.546875 -12.488281 2.609375 -12.21875 C 2.671875 -11.914062 2.878906 -11.679688 3.234375 -11.515625 C 3.597656 -11.347656 4.53125 -11.113281 6.03125 -10.8125 C 7.457031 -10.5 8.5 -10.0625 9.15625 -9.5 C 9.8125 -8.945312 10.253906 -8.164062 10.484375 -7.15625 Z M 10.484375 -7.15625 "/></g></g></g><g fill="#ffffff" fill-opacity="1"><g transform="translate(222.419633, 279.153274)"><g><path d="M 10.3125 -3.40625 L 1.59375 -0.53125 L -3.265625 -15.21875 L 5.453125 -18.09375 L 6.515625 -14.90625 L 1.765625 -13.34375 L 2.53125 -11.046875 L 6.921875 -12.484375 L 7.96875 -9.296875 L 3.578125 -7.859375 L 4.5 -5.078125 L 9.25 -6.640625 Z M 10.3125 -3.40625 "/></g></g></g><g fill="#ffffff" fill-opacity="1"><g transform="translate(234.479376, 275.201957)"><g><path d="M 3 -7.5625 L 5.328125 -2.4375 L 1.515625 -0.6875 L -4.90625 -14.765625 L -0.296875 -16.875 C 3.535156 -18.613281 6.082031 -18.097656 7.34375 -15.328125 C 8.09375 -13.703125 7.875 -12.078125 6.6875 -10.453125 L 13.59375 -6.203125 L 9.265625 -4.234375 L 3.953125 -7.984375 Z M 1.6875 -10.40625 L 2.40625 -10.71875 C 3.726562 -11.320312 4.125 -12.210938 3.59375 -13.390625 C 3.144531 -14.367188 2.269531 -14.5625 0.96875 -13.96875 L 0.21875 -13.640625 Z M 1.6875 -10.40625 "/></g></g></g><g fill="#ffffff" fill-opacity="1"><g transform="translate(248.614927, 268.709413)"><g><path d="M 0.75 -18.59375 L 4.734375 -21.03125 L 8.5 -5.203125 L 4.296875 -2.640625 L -8.078125 -13.1875 L -4.0625 -15.640625 L 1.8125 -10.046875 C 3.09375 -8.796875 3.9375 -7.890625 4.34375 -7.328125 C 4.113281 -7.773438 3.867188 -8.351562 3.609375 -9.0625 C 3.359375 -9.769531 3.171875 -10.335938 3.046875 -10.765625 Z M 0.75 -18.59375 "/></g></g></g><g fill="#ffffff" fill-opacity="1"><g transform="translate(261.893472, 260.337013)"><g><path d="M 1.34375 -1 L -7.921875 -13.390625 L -4.5625 -15.90625 L 4.703125 -3.515625 Z M 1.34375 -1 "/></g></g></g><g fill="#ffffff" fill-opacity="1"><g transform="translate(268.525412, 255.523266)"><g><path d="M -1.8125 -14.859375 C -2.550781 -14.191406 -2.851562 -13.363281 -2.71875 -12.375 C -2.59375 -11.394531 -2.054688 -10.375 -1.109375 -9.3125 C 0.878906 -7.09375 2.71875 -6.742188 4.40625 -8.265625 C 4.914062 -8.710938 5.347656 -9.222656 5.703125 -9.796875 C 6.054688 -10.367188 6.378906 -10.972656 6.671875 -11.609375 L 9.046875 -8.96875 C 8.460938 -7.675781 7.566406 -6.488281 6.359375 -5.40625 C 4.617188 -3.851562 2.828125 -3.164062 0.984375 -3.34375 C -0.847656 -3.519531 -2.613281 -4.554688 -4.3125 -6.453125 C -5.382812 -7.648438 -6.097656 -8.898438 -6.453125 -10.203125 C -6.816406 -11.515625 -6.789062 -12.789062 -6.375 -14.03125 C -5.96875 -15.28125 -5.195312 -16.414062 -4.0625 -17.4375 C -2.8125 -18.539062 -1.382812 -19.332031 0.21875 -19.8125 L 1.46875 -16.5 C 0.875 -16.332031 0.300781 -16.125 -0.25 -15.875 C -0.800781 -15.632812 -1.320312 -15.296875 -1.8125 -14.859375 Z M -1.8125 -14.859375 "/></g></g></g><g fill="#ffffff" fill-opacity="1"><g transform="translate(279.506719, 245.552377)"><g><path d="M 7.265625 -8.0625 L 1.125 -1.234375 L -10.359375 -11.59375 L -4.21875 -18.421875 L -1.71875 -16.171875 L -5.0625 -12.453125 L -3.265625 -10.828125 L -0.171875 -14.265625 L 2.3125 -12.015625 L -0.78125 -8.578125 L 1.390625 -6.625 L 4.734375 -10.34375 Z M 7.265625 -8.0625 "/></g></g></g><g fill="#ffffff" fill-opacity="1"><g transform="translate(287.943222, 236.165398)"><g><path d="M 3.1875 -12.265625 C 3.96875 -11.703125 4.515625 -11.003906 4.828125 -10.171875 C 5.140625 -9.347656 5.1875 -8.441406 4.96875 -7.453125 C 4.757812 -6.472656 4.289062 -5.484375 3.5625 -4.484375 C 2.957031 -3.660156 2.390625 -3.003906 1.859375 -2.515625 C 1.328125 -2.035156 0.691406 -1.601562 -0.046875 -1.21875 L -3.046875 -3.421875 C -2.253906 -3.816406 -1.507812 -4.296875 -0.8125 -4.859375 C -0.113281 -5.421875 0.445312 -5.992188 0.875 -6.578125 C 1.238281 -7.066406 1.421875 -7.488281 1.421875 -7.84375 C 1.421875 -8.207031 1.28125 -8.492188 1 -8.703125 C 0.832031 -8.828125 0.648438 -8.890625 0.453125 -8.890625 C 0.265625 -8.890625 0.03125 -8.832031 -0.25 -8.71875 C -0.539062 -8.601562 -1.222656 -8.25 -2.296875 -7.65625 C -3.253906 -7.113281 -4.050781 -6.765625 -4.6875 -6.609375 C -5.332031 -6.453125 -5.953125 -6.441406 -6.546875 -6.578125 C -7.140625 -6.722656 -7.742188 -7.019531 -8.359375 -7.46875 C -9.515625 -8.3125 -10.101562 -9.382812 -10.125 -10.6875 C -10.15625 -12 -9.632812 -13.382812 -8.5625 -14.84375 C -7.613281 -16.132812 -6.347656 -17.226562 -4.765625 -18.125 L -2.921875 -15.203125 C -4.304688 -14.421875 -5.3125 -13.609375 -5.9375 -12.765625 C -6.25 -12.328125 -6.40625 -11.953125 -6.40625 -11.640625 C -6.40625 -11.328125 -6.296875 -11.085938 -6.078125 -10.921875 C -5.828125 -10.734375 -5.507812 -10.695312 -5.125 -10.8125 C -4.75 -10.925781 -3.894531 -11.359375 -2.5625 -12.109375 C -1.28125 -12.828125 -0.210938 -13.1875 0.640625 -13.1875 C 1.503906 -13.195312 2.351562 -12.890625 3.1875 -12.265625 Z M 3.1875 -12.265625 "/></g></g></g><g clip-path="url(#27348c9f15)"><path fill="#252525" d="M 107.238281 187.199219 C 107.238281 151.539062 143.203125 122.632812 187.570312 122.632812 C 231.933594 122.632812 267.898438 151.539062 267.898438 187.199219 C 267.898438 222.855469 231.933594 251.761719 187.570312 251.761719 C 143.203125 251.761719 107.238281 222.855469 107.238281 187.199219 " fill-opacity="1" fill-rule="nonzero"/></g><path fill="#7c898b" d="M 113.679688 187.199219 C 113.679688 156.339844 145.375 129.074219 187.570312 129.074219 C 229.765625 129.074219 261.457031 156.339844 261.457031 187.199219 C 261.457031 218.054688 229.765625 245.320312 187.570312 245.320312 C 145.375 245.320312 113.679688 218.054688 113.679688 187.199219 " fill-opacity="1" fill-rule="nonzero"/><path fill="#ffffff" d="M 259.425781 187.199219 C 259.425781 216.554688 229.0625 243.289062 187.570312 243.289062 C 146.074219 243.289062 115.714844 216.554688 115.714844 187.199219 C 115.714844 157.84375 146.074219 131.105469 187.570312 131.105469 C 229.0625 131.105469 259.425781 157.84375 259.425781 187.199219 " fill-opacity="1" fill-rule="nonzero"/><path fill="#001f3f" d="M 187.570312 239.898438 C 147.246094 239.898438 119.105469 214.050781 119.105469 187.199219 C 119.105469 160.34375 147.246094 134.496094 187.570312 134.496094 C 227.890625 134.496094 256.035156 160.34375 256.035156 187.199219 C 256.035156 214.050781 227.890625 239.898438 187.570312 239.898438 " fill-opacity="1" fill-rule="nonzero"/><g clip-path="url(#3bb2b08041)"><path fill="#252525" d="M 197.839844 163.414062 C 196.269531 159.277344 195.761719 155.265625 195.75 150.261719 C 198.394531 145.609375 201.398438 139.636719 201.359375 135.023438 C 203.046875 118.753906 191.714844 113.042969 180.695312 113.894531 C 175.957031 113.859375 169.703125 117.492188 167.539062 125.089844 L 154.6875 127.484375 C 153.667969 131.007812 157.722656 135.1875 165.449219 135.214844 C 165.136719 136.417969 165.582031 136.839844 165.519531 137.585938 C 164.386719 142.359375 165.101562 145.308594 166.230469 149.367188 C 165.203125 155.1875 166.210938 158.347656 170.582031 158.824219 L 170.742188 161.417969 C 170.054688 162.046875 168.921875 164.132812 167.441406 164.765625 C 161.351562 167.355469 148.050781 169.511719 144.621094 172.941406 C 135.148438 182.695312 136.496094 196.148438 135.914062 217.492188 L 139.621094 220.683594 C 140.5625 231.742188 145.21875 241.3125 148.121094 241.328125 C 154.011719 242.558594 167.34375 237.597656 189.085938 227.417969 L 198.742188 227.417969 L 197.394531 231.492188 C 197.488281 235.472656 198.335938 237.617188 199.933594 237.921875 L 219.925781 235.042969 L 224.160156 230.929688 L 223.074219 211.3125 C 224.734375 212.859375 232.550781 215.050781 232.550781 215.050781 C 244.847656 219.117188 249.335938 219.132812 255.464844 216.742188 C 257.203125 201.625 254.796875 199.851562 242.136719 179.636719 L 239.472656 169.40625 C 238.359375 167.464844 236.4375 165.9375 234.84375 166.742188 C 234.257812 164.667969 232.730469 164.140625 230.042969 164.078125 C 229.117188 162.261719 227.199219 161.15625 225.523438 161.832031 C 223.945312 160.421875 222.535156 160.027344 221.289062 160.65625 L 214.203125 168.488281 L 197.839844 163.414062 " fill-opacity="1" fill-rule="evenodd"/></g><path fill="#252525" d="M 221.679688 219.441406 L 226.785156 243.089844 C 195.664062 248.070312 174.070312 251.289062 164.269531 245.191406 L 159.714844 222.167969 L 221.679688 219.441406 " fill-opacity="1" fill-rule="evenodd"/><g clip-path="url(#a6b4db2d4e)"><path fill="#252525" d="M 276.515625 192.941406 L 154.289062 144.589844 L 152.902344 149.484375 L 272.761719 198.292969 C 276.070312 197.925781 277.320312 196.144531 276.515625 192.941406 " fill-opacity="1" fill-rule="evenodd"/></g><path fill="#252525" d="M 158.207031 145.054688 L 150.519531 142.640625 C 148.023438 144.28125 147.425781 146.238281 148.730469 148.507812 L 155.945312 151.667969 C 158.574219 149.96875 159.328125 147.765625 158.207031 145.054688 " fill-opacity="1" fill-rule="evenodd"/><path fill="#252525" d="M 151.792969 144.746094 L 147.808594 143.085938 L 155.792969 121.84375 C 156.027344 121.15625 155.78125 120.453125 155.050781 119.726562 L 146.316406 116.121094 C 145.558594 115.996094 145.050781 116.246094 144.796875 116.867188 L 143.457031 120.324219 L 145.09375 120.324219 L 145.910156 118.347656 L 147.0625 118.089844 L 153.53125 120.949219 C 153.996094 121.238281 153.996094 121.683594 153.53125 122.289062 L 145.871094 142.492188 C 145.578125 143.875 145.679688 144.730469 146.167969 145.054688 L 151.117188 146.839844 L 151.792969 144.746094 " fill-opacity="1" fill-rule="evenodd"/><path fill="#252525" d="M 148.882812 122.886719 C 150.0625 118.171875 142.609375 116.144531 139.523438 118.832031 L 126.707031 151.519531 C 126.335938 155.859375 132.308594 158.433594 135.769531 155.71875 L 148.882812 122.886719 " fill-opacity="1" fill-rule="evenodd"/><path fill="#ffffff" d="M 188.550781 115.980469 C 178.550781 113.707031 172.421875 117.6875 170.394531 125.421875 C 180.839844 125.71875 192.152344 130.542969 198.460938 133.625 C 200.890625 125.964844 197.804688 119.414062 188.550781 115.980469 " fill-opacity="1" fill-rule="evenodd"/><path fill="#ffffff" d="M 187.8125 130.617188 C 181.210938 128.328125 174.195312 126.644531 170.128906 126.421875 L 157.070312 128.582031 C 168.359375 131.480469 179.867188 135.367188 187.8125 130.617188 " fill-opacity="1" fill-rule="evenodd"/><path fill="#ffffff" d="M 167.78125 132.285156 L 167.242188 134.675781 L 167.769531 136.847656 C 166.117188 140.945312 166.636719 144.894531 167.78125 149.601562 C 166.847656 154.089844 168.261719 156.644531 172.015625 157.269531 C 175.894531 157.816406 179.246094 157.675781 182.066406 156.847656 C 184.183594 156.195312 186.65625 154.386719 189.476562 151.425781 C 188.570312 154.113281 185.46875 156.566406 180.597656 157.59375 C 179.863281 161.289062 181.464844 163.15625 183.585938 166.183594 C 187.570312 170.949219 193.867188 168.59375 195.230469 165.625 C 194.34375 160.328125 193.199219 155.726562 193.519531 149.125 C 193.316406 148.253906 191.515625 147.425781 191.425781 146.625 C 198.449219 149.160156 198.660156 130.78125 191.949219 139.46875 L 189.640625 139.535156 L 186.894531 136.511719 C 186.894531 136.511719 186.941406 133.082031 185.839844 133.082031 C 177.125 135.277344 173.269531 134.828125 167.78125 132.285156 " fill-opacity="1" fill-rule="evenodd"/><path fill="#ffffff" d="M 149.078125 173.652344 C 140.492188 180.519531 142.027344 195.789062 140.183594 214.585938 C 145.585938 212.957031 155.449219 211.3125 167.320312 210.757812 C 167.566406 202.453125 165.851562 192.105469 162.171875 179.71875 C 164.121094 184.898438 170.160156 190.621094 170.347656 210.8125 L 176.621094 210.726562 C 178.421875 188.011719 158.851562 165.007812 149.078125 173.652344 " fill-opacity="1" fill-rule="evenodd"/><path fill="#ffffff" d="M 187.675781 214.03125 L 194.289062 212.183594 L 200.035156 204.710938 L 208.0625 202.433594 L 212.410156 202.972656 L 217.617188 205.25 C 218.367188 207.046875 217.785156 207.949219 215.875 207.960938 L 211.546875 206.652344 L 206.664062 206.972656 C 206.09375 207.949219 206.195312 208.414062 206.96875 208.371094 L 214.257812 209.472656 C 214.996094 210.839844 214.890625 211.851562 213.9375 212.503906 L 208.40625 212.503906 C 207.230469 212.945312 207.117188 213.417969 208.0625 213.925781 L 214.152344 213.601562 C 215.15625 214.3125 215.09375 216.175781 214.089844 217.128906 L 208.109375 217.4375 C 207.199219 218.214844 206.957031 218.378906 207.726562 218.609375 L 213.457031 218.144531 C 214.359375 219.601562 214.34375 220.390625 212.996094 221.472656 L 207.03125 221.933594 C 203.886719 223.941406 201.59375 224.429688 199.816406 224.664062 L 193.855469 224.125 L 184.8125 227.070312 C 181.5625 223.265625 185.03125 217.292969 187.675781 214.03125 " fill-opacity="1" fill-rule="evenodd"/><path fill="#ffffff" d="M 216.304688 188.765625 L 194.738281 194.621094 C 191.527344 197.394531 190.578125 200.355469 191.898438 203.507812 L 196.136719 204.046875 L 209.589844 200.582031 L 214.691406 201.011719 L 218.265625 199.722656 C 214.859375 195.992188 214.207031 192.339844 216.304688 188.765625 " fill-opacity="1" fill-rule="evenodd"/><path fill="#ffffff" d="M 201.582031 225.371094 L 199.386719 229.761719 L 199.386719 230.945312 L 217.617188 228.449219 L 217.726562 225.523438 L 205.242188 227.265625 L 212.515625 224.769531 L 212.195312 223.136719 L 207.308594 223.691406 L 201.582031 225.371094 " fill-opacity="1" fill-rule="evenodd"/><path fill="#ffffff" d="M 221.511719 163.214844 L 215.621094 169.898438 L 216.625 172.042969 C 218.019531 172.378906 218.878906 176.519531 219.820312 175.984375 L 219.113281 171.585938 L 222.773438 166.886719 C 223.660156 166.320312 224.050781 166.488281 223.945312 167.382812 L 220.722656 172.488281 L 221.15625 177.394531 C 222.292969 178.640625 223.398438 178.816406 224.246094 178.101562 L 223.832031 173.273438 L 226.632812 169.015625 C 227.472656 168.390625 227.847656 168.554688 227.753906 169.503906 L 224.847656 174.136719 L 225.492188 178.609375 C 226.183594 180.210938 227.492188 180.746094 228.59375 179.871094 L 228.144531 175.867188 L 231.082031 171.527344 C 231.992188 171.449219 232.324219 171.859375 232.074219 172.761719 L 229.324219 176.257812 L 229.71875 179.632812 C 230.460938 181.246094 231.722656 181.640625 233.488281 181.046875 L 232.734375 177.722656 L 234.863281 175.019531 L 236.460938 177.121094 L 239.429688 178.292969 L 236.972656 170.761719 C 236.53125 169.035156 235.179688 168.230469 232.925781 168.34375 C 232.050781 166.617188 230.566406 165.875 228.472656 166.117188 C 227.789062 164.554688 226.535156 163.96875 224.714844 164.375 C 223.996094 162.820312 222.925781 162.433594 221.511719 163.214844 " fill-opacity="1" fill-rule="evenodd"/><path fill="#7c898b" d="M 210.550781 172.960938 C 215.210938 179.71875 216.960938 183.082031 217.726562 186.765625 L 230.28125 186.164062 C 232.285156 187.199219 233.308594 191.574219 231.136719 194.296875 L 221.492188 198.816406 L 221.992188 207.058594 C 223.929688 209.515625 226.789062 210.394531 231.054688 210.855469 C 230.496094 206.632812 231.28125 198.914062 233.847656 191.886719 C 232.753906 187.304688 229.765625 184.417969 224.886719 183.230469 C 220.90625 183.429688 218.320312 182.769531 217.121094 181.253906 L 214.058594 174.574219 L 210.550781 172.960938 " fill-opacity="1" fill-rule="evenodd"/><path fill="#ffffff" d="M 244.335938 186.71875 C 250.371094 197.117188 253.089844 206.003906 252.488281 213.371094 C 251.53125 206.265625 248.136719 197.558594 242.300781 187.246094 L 244.335938 186.71875 " fill-opacity="1" fill-rule="evenodd"/><path fill="#ffffff" d="M 233.480469 212.390625 C 236.980469 213.878906 241.996094 215.5 247.171875 216.011719 C 240.1875 213.082031 236.847656 201.359375 234.464844 196.835938 C 233.3125 202.976562 232.988281 208.164062 233.480469 212.390625 " fill-opacity="1" fill-rule="evenodd"/><path fill="#ffffff" d="M 217.574219 188.480469 C 215.78125 192.644531 216.425781 196.460938 219.136719 198.605469 L 220.972656 197.761719 C 218.671875 195.972656 218.171875 192.5 219.75 188.480469 L 217.574219 188.480469 " fill-opacity="1" fill-rule="evenodd"/><path fill="#ffffff" d="M 221.925781 188.554688 C 220.257812 191.601562 220.890625 194.359375 222.996094 196.769531 L 224.941406 195.664062 C 223.726562 193.925781 222.957031 191.101562 223.839844 188.21875 L 221.925781 188.554688 " fill-opacity="1" fill-rule="evenodd"/><path fill="#ffffff" d="M 143.589844 122.878906 C 142.433594 122.988281 141.316406 122.425781 140.242188 121.191406 L 128.355469 151.796875 C 129.105469 153.78125 130.3125 154.6875 131.976562 154.507812 L 143.589844 122.878906 " fill-opacity="1" fill-rule="evenodd"/><path fill="#ffffff" d="M 156.671875 147.113281 L 165.65625 150.746094 C 165.714844 151.464844 165.777344 152.128906 165.847656 152.78125 L 156.042969 148.78125 L 156.671875 147.113281 " fill-opacity="1" fill-rule="evenodd"/><path fill="#ffffff" d="M 202.445312 165.621094 L 211.8125 169.40625 C 211.890625 170.265625 212.070312 171.007812 212.3125 171.730469 L 203.179688 168.007812 C 202.914062 167.167969 202.710938 166.375 202.445312 165.621094 " fill-opacity="1" fill-rule="evenodd"/><path fill="#ffffff" d="M 271.621094 195.917969 L 235.746094 181.289062 C 235.765625 180.9375 235.773438 180.59375 235.765625 180.25 C 235.890625 179.921875 236.019531 179.589844 236.132812 179.242188 L 272.660156 194.011719 L 271.621094 195.917969 " fill-opacity="1" fill-rule="evenodd"/><path fill="#ffffff" d="M 215.015625 173.277344 L 217.644531 179.941406 C 218.765625 180.980469 220.214844 181.25 221.992188 180.75 L 218.304688 178.453125 C 217.445312 175.195312 216.347656 173.46875 215.015625 173.277344 " fill-opacity="1" fill-rule="evenodd"/><path fill="#252525" d="M 215.703125 194.515625 C 206.554688 197.734375 199.613281 199.59375 194.878906 200.09375 C 194.359375 199.8125 194.636719 198.460938 195.722656 196.046875 L 196.414062 198.683594 L 215.703125 192.953125 L 215.703125 194.515625 " fill-opacity="1" fill-rule="evenodd"/><path fill="#252525" d="M 237.179688 186.792969 L 230.117188 188.429688 L 230.832031 191.191406 L 237.800781 189.132812 C 238.460938 188.078125 238.253906 187.296875 237.179688 186.792969 " fill-opacity="1" fill-rule="evenodd"/><path fill="#ffffff" d="M 228.746094 188.667969 C 228.625 190.46875 228.882812 191.640625 229.515625 192.183594 L 227.214844 193.132812 C 226.113281 192.386719 225.5625 190.726562 226.316406 188.9375 L 228.746094 188.667969 " fill-opacity="1" fill-rule="evenodd"/><path fill="#ffffff" d="M 199.261719 233.664062 L 218.378906 230.820312 L 217.855469 232.359375 L 199.523438 235.074219 L 199.261719 233.664062 " fill-opacity="1" fill-rule="evenodd"/><path fill="#7c898b" d="M 147.210938 174.109375 C 148.039062 173.375 150.800781 172.414062 151.75 172.117188 C 144.839844 179.523438 146.078125 194.042969 144.351562 211.664062 C 149.109375 210.230469 157.332031 208.785156 167.335938 208.082031 C 167.351562 208.996094 167.347656 209.886719 167.320312 210.757812 C 155.449219 211.3125 143.878906 213.601562 138.476562 215.230469 C 140.320312 196.429688 138.628906 180.976562 147.210938 174.109375 " fill-opacity="1" fill-rule="evenodd"/><path fill="#7c898b" d="M 167.78125 132.285156 C 169.195312 132.941406 170.59375 133.460938 172.03125 133.828125 L 171.785156 135.367188 L 171.1875 137.546875 C 170.53125 139.164062 169.96875 140.835938 169.898438 142.464844 C 171.457031 144.363281 171.554688 146.425781 171.851562 148.59375 C 169.042969 148.910156 172.035156 149.816406 172.1875 150.4375 C 171.433594 154.0625 172.210938 156.425781 174.515625 157.53125 C 173.707031 157.476562 172.875 157.390625 172.015625 157.269531 C 168.261719 156.644531 166.847656 154.089844 167.78125 149.601562 C 166.636719 144.894531 166.117188 140.945312 167.769531 136.847656 L 167.242188 134.675781 Z M 175.496094 134.402344 C 178.894531 134.445312 181.433594 134.074219 185.761719 133.027344 C 186.324219 133.027344 186.765625 133.925781 186.785156 134.824219 C 181.859375 135.929688 179.109375 135.503906 175.496094 134.402344 " fill-opacity="1" fill-rule="evenodd"/><path fill="#252525" d="M 166.964844 134.683594 L 169.148438 134.152344 L 171.511719 134.792969 C 171.996094 135.195312 171.855469 136.179688 171.089844 137.746094 L 169.191406 138.070312 L 167.929688 136.703125 L 169.234375 135.929688 L 167.132812 135.34375 L 166.964844 134.683594 " fill-opacity="1" fill-rule="evenodd"/><path fill="#252525" d="M 175.179688 135.117188 L 178.765625 134.464844 C 181.125 134.757812 182.535156 135.472656 182.679688 135.949219 C 182.355469 136.316406 181.21875 136.226562 179.269531 135.683594 C 178.214844 135.71875 177.675781 135.953125 177.65625 136.375 C 179.34375 136.566406 181.226562 136.890625 181.90625 137.304688 L 178.507812 138.554688 L 176.640625 137.828125 L 174.699219 137.175781 L 175.179688 135.117188 " fill-opacity="1" fill-rule="evenodd"/><path fill="#252525" d="M 169.871094 142.335938 C 170.835938 142.773438 171.824219 142.25 173.453125 142.25 C 173.875 143.132812 175 143.816406 176.824219 144.300781 C 175.753906 145.523438 173.566406 143.9375 173.0625 144.472656 C 172.851562 146.054688 172.503906 146.457031 172.140625 146.082031 L 171.621094 144.601562 L 170.296875 144.296875 L 169.871094 142.335938 " fill-opacity="1" fill-rule="evenodd"/><path fill="#252525" d="M 171.621094 144.398438 L 168.570312 145.90625 C 167.949219 146.265625 166.890625 145.8125 166.53125 147.148438 L 167.515625 154.820312 L 169.789062 157.476562 L 176.824219 158.027344 C 178.964844 158.1875 181.378906 157.496094 184.0625 155.953125 C 182.417969 155.617188 180.359375 156.15625 180.132812 154.816406 L 182.617188 149.75 L 177.601562 145.8125 L 172.199219 144.386719 L 172.699219 146.628906 L 176.382812 147.566406 C 177.386719 148.109375 177.625 148.457031 177.945312 149.230469 C 178.234375 151.253906 177.949219 152.050781 176.699219 152.695312 L 173.074219 153.433594 L 169.34375 152.003906 L 168.855469 150.160156 L 169.128906 147.691406 L 169.84375 146.976562 L 171.804688 146.554688 L 171.621094 144.398438 " fill-opacity="1" fill-rule="evenodd"/><path fill="#252525" d="M 176.066406 147.804688 C 174.769531 147.851562 173.660156 147.671875 172.742188 147.257812 L 171.980469 147.476562 L 171.222656 147.113281 L 169.523438 147.652344 L 169.523438 148.667969 L 170.175781 148.195312 C 171.222656 148.636719 172.40625 148.894531 174.207031 148.578125 L 176.609375 148.921875 L 176.066406 147.804688 " fill-opacity="1" fill-rule="evenodd"/><path fill="#252525" d="M 175.347656 149.933594 C 173.285156 150.421875 171.691406 150.363281 170.570312 149.753906 L 170.03125 150.980469 L 176.355469 151.125 L 175.347656 149.933594 " fill-opacity="1" fill-rule="evenodd"/><path fill="#7c898b" d="M 188.550781 115.980469 C 189.082031 116.175781 189.589844 116.382812 190.082031 116.601562 C 183.984375 116.019531 179.535156 118.988281 177.015625 124.472656 C 183.414062 125.789062 189.839844 128.910156 195.144531 132.070312 C 188.625 129.140625 179.199219 125.671875 170.394531 125.421875 C 172.421875 117.6875 178.550781 113.707031 188.550781 115.980469 " fill-opacity="1" fill-rule="evenodd"/><path fill="#7c898b" d="M 179.910156 132.816406 C 173.066406 133.152344 165.015625 130.621094 157.070312 128.582031 L 170.128906 126.421875 C 171.972656 126.523438 174.417969 126.925781 177.160156 127.546875 L 166.035156 129.386719 C 170.710938 130.589844 175.425781 131.960938 179.910156 132.816406 " fill-opacity="1" fill-rule="evenodd"/><path fill="#7c898b" d="M 191.898438 203.507812 C 191.539062 202.648438 191.347656 201.800781 191.324219 200.96875 L 195.542969 201.503906 L 208.996094 198.039062 L 214.097656 198.46875 L 216.597656 197.566406 C 217.050781 198.28125 217.605469 199 218.265625 199.722656 L 214.691406 201.011719 L 209.589844 200.582031 L 196.136719 204.046875 C 194.378906 204.539062 192.964844 204.359375 191.898438 203.507812 " fill-opacity="1" fill-rule="evenodd"/><path fill="#252525" d="M 187.472656 136.160156 C 188.53125 137.820312 188.863281 139.179688 188.664062 141.707031 C 187.671875 143.261719 185.089844 143.714844 184.015625 144.691406 C 182.207031 146.332031 181.777344 148.644531 180.527344 149.300781 L 178.992188 149.210938 C 178.683594 153.746094 179.316406 156.390625 180.890625 157.148438 C 182.652344 157.210938 184.632812 156.5 186.828125 155.019531 C 187.964844 154.0625 188.847656 152.867188 189.476562 151.425781 C 190.347656 149.511719 190.125 147.433594 190.648438 146.753906 C 190.648438 140.566406 191.722656 140.144531 192.679688 138.597656 L 187.472656 136.160156 " fill-opacity="1" fill-rule="evenodd"/><path fill="#ffffff" d="M 166.585938 212.097656 C 153.335938 213.277344 145.371094 214.921875 142.6875 217.042969 C 143.476562 226.21875 145.625 235.316406 148.300781 238.4375 C 162.722656 240.832031 175.058594 228.496094 194.851562 224.214844 L 187.675781 214.03125 L 166.585938 215.003906 L 154.179688 217.523438 C 156.019531 215.71875 160.152344 214.296875 166.585938 213.253906 L 166.585938 212.097656 " fill-opacity="1" fill-rule="evenodd"/><path fill="#ffffff" d="M 172.417969 162.355469 L 169.707031 166.023438 L 151.75 172.117188 C 164.441406 180.695312 167.472656 187.199219 172.414062 210.785156 C 176.722656 211.144531 185.660156 212.277344 185.660156 212.277344 L 190.921875 210.683594 L 193.636719 207.96875 C 192.355469 207.734375 191.023438 206.566406 189.648438 204.460938 C 188.464844 199.539062 189.6875 195.816406 193.316406 193.296875 L 215.429688 187.285156 C 214.765625 182.421875 213.378906 177.746094 211.265625 173.253906 L 204.925781 170.667969 C 202.363281 169.625 199.542969 162.914062 198.140625 164.523438 L 194.835938 170.195312 C 194.660156 175.164062 193.675781 179.035156 191.882812 181.8125 L 181.511719 168.257812 L 172.417969 162.355469 " fill-opacity="1" fill-rule="evenodd"/><path fill="#252525" d="M 169.707031 166.023438 C 169.605469 166.160156 171.679688 168.710938 175.925781 173.679688 C 176.964844 171.835938 178.507812 170.824219 180.554688 170.648438 L 183.902344 174.953125 L 180.074219 172.722656 C 178.398438 173.207031 177.023438 174.617188 175.949219 176.949219 L 167.3125 166.023438 L 169.707031 166.023438 " fill-opacity="1" fill-rule="evenodd"/><path fill="#252525" d="M 200.953125 165.324219 L 202.410156 174.636719 L 196.347656 170.808594 L 195.53125 177.882812 L 198.242188 174.359375 C 198.667969 173.957031 200.808594 174.960938 204.664062 177.371094 L 203.433594 169.554688 L 200.953125 165.324219 " fill-opacity="1" fill-rule="evenodd"/><path fill="#ffffff" d="M 193.515625 171.75 L 186.28125 172.660156 L 191.40625 178.984375 C 192.226562 178.460938 192.929688 176.050781 193.515625 171.75 " fill-opacity="1" fill-rule="evenodd"/><path fill="#252525" d="M 192.199219 180.535156 C 191.011719 182.5 190.585938 184.523438 190.921875 186.597656 L 192.039062 195.53125 L 193.316406 194.253906 L 191.722656 185.484375 L 192.199219 180.535156 " fill-opacity="1" fill-rule="evenodd"/><path fill="#252525" d="M 183.105469 192.019531 L 168.90625 193.296875 L 170.503906 200.15625 C 173.796875 201.546875 178.902344 201.226562 185.820312 199.199219 C 178.308594 199.726562 173.46875 199.511719 171.300781 198.5625 L 170.34375 193.933594 L 183.105469 192.019531 " fill-opacity="1" fill-rule="evenodd"/><path fill="#252525" d="M 171.125 200.40625 L 170.816406 211.640625 L 172.414062 210.785156 L 171.671875 200.554688 L 171.125 200.40625 " fill-opacity="1" fill-rule="evenodd"/><path fill="#252525" d="M 178.957031 197.921875 C 178.957031 197.214844 179.53125 196.648438 180.234375 196.648438 C 180.941406 196.648438 181.511719 197.214844 181.511719 197.921875 C 181.511719 198.625 180.941406 199.199219 180.234375 199.199219 C 179.53125 199.199219 178.957031 198.625 178.957031 197.921875 " fill-opacity="1" fill-rule="nonzero"/><path fill="#252525" d="M 186.453125 223.464844 C 170.464844 230.914062 160.09375 233.191406 155.347656 230.300781 C 160.863281 230.199219 171.234375 227.921875 186.453125 223.464844 " fill-opacity="1" fill-rule="evenodd"/><path fill="#252525" d="M 193.535156 184.628906 C 193.535156 184.152344 193.921875 183.765625 194.398438 183.765625 C 194.875 183.765625 195.261719 184.152344 195.261719 184.628906 C 195.261719 185.105469 194.875 185.492188 194.398438 185.492188 C 193.921875 185.492188 193.535156 185.105469 193.535156 184.628906 " fill-opacity="1" fill-rule="nonzero"/><path fill="#252525" d="M 194.710938 191.511719 C 194.710938 190.957031 195.074219 190.507812 195.519531 190.507812 C 195.964844 190.507812 196.324219 190.957031 196.324219 191.511719 C 196.324219 192.070312 195.964844 192.523438 195.519531 192.523438 C 195.074219 192.523438 194.710938 192.070312 194.710938 191.511719 " fill-opacity="1" fill-rule="nonzero"/><path fill="#252525" d="M 171.832031 150.691406 C 171.710938 151.695312 171.097656 152.65625 169.988281 153.578125 L 172.101562 154.59375 L 176.089844 153.796875 C 174.914062 153.085938 173.859375 152.238281 173.632812 150.734375 L 171.832031 150.691406 " fill-opacity="1" fill-rule="evenodd"/><path fill="#252525" d="M 171.101562 146.410156 C 171.679688 146.875 172.628906 146.875 174.058594 146.765625 L 172.988281 144.941406 L 172.238281 144.496094 L 171.125 144.675781 L 171.101562 146.410156 " fill-opacity="1" fill-rule="evenodd"/><path fill="#252525" d="M 166.53125 141.207031 L 167.570312 144.105469 L 167.015625 147.113281 L 166.417969 145.328125 L 166.53125 141.207031 " fill-opacity="1" fill-rule="evenodd"/><path fill="#252525" d="M 192.21875 143.636719 L 192.550781 141.035156 L 195.152344 139.3125 L 195.152344 141.476562 L 194.632812 140.957031 L 193.097656 141.253906 L 193.757812 142.464844 C 194.1875 144.476562 193.539062 145.125 191.8125 144.40625 L 192.21875 143.636719 " fill-opacity="1" fill-rule="evenodd"/><path fill="#252525" d="M 174.78125 136.828125 L 174.578125 138.0625 L 176.585938 137.578125 Z M 174.78125 136.828125 " fill-opacity="1" fill-rule="evenodd"/><path fill="#7c898b" d="M 230.972656 189.378906 L 238.144531 187.125 C 238.421875 187.359375 238.433594 187.6875 238.175781 188.113281 L 231.210938 190.28125 C 230.753906 190.140625 230.675781 189.839844 230.972656 189.378906 " fill-opacity="1" fill-rule="evenodd"/><path fill="#7c898b" d="M 229.800781 192.996094 L 227.804688 193.949219 L 228.257812 194.539062 L 230.195312 193.632812 L 229.800781 192.996094 " fill-opacity="1" fill-rule="evenodd"/><path fill="#7c898b" d="M 228.847656 187.03125 L 228.757812 187.664062 L 226.453125 188.117188 L 226.453125 187.390625 L 228.847656 187.03125 " fill-opacity="1" fill-rule="evenodd"/></svg>