<svg xmlns="http://www.w3.org/2000/svg" width="256" height="256" viewBox="0 0 100 100"><rect width="100" height="100" rx="20" fill="#160183"></rect><path d="M34.48 60.36L34.48 60.36Q34.48 67.29 30.60 71.06Q26.71 74.83 19.55 74.83L19.55 74.83Q15.39 74.83 12.69 73.45Q10.00 72.06 10.00 68.60L10.00 68.60Q10.00 67.13 10.42 66.05Q10.85 64.98 11.38 64.36L11.38 64.36Q12.77 64.67 13.96 64.86Q15.16 65.05 16.47 65.05L16.47 65.05Q22.40 65.05 22.40 58.89L22.40 58.89L22.40 26.94Q23.24 26.78 24.82 26.55Q26.40 26.32 27.94 26.32L27.94 26.32Q31.40 26.32 32.94 27.48Q34.48 28.63 34.48 32.02L34.48 32.02L34.48 60.36ZM51.66 43.80L51.66 43.80Q50.89 44.19 49.73 44.49Q48.58 44.80 47.19 44.80L47.19 44.80Q45.26 44.80 43.99 43.96Q42.72 43.11 42.57 41.34L42.57 41.34L41.65 26.86Q42.72 26.09 44.19 25.55Q45.65 25.01 47.57 25.01L47.57 25.01Q50.19 25.01 51.66 26.09Q53.12 27.17 53.12 29.56L53.12 29.56Q53.12 30.63 53.00 32.44Q52.89 34.25 52.66 36.26Q52.43 38.26 52.16 40.30Q51.89 42.34 51.66 43.80ZM90.00 62.90L90.00 62.90Q90.00 68.60 85.77 71.79Q81.53 74.99 73.29 74.99L73.29 74.99Q70.06 74.99 67.40 74.52Q64.75 74.06 62.82 73.14Q60.90 72.21 59.82 70.83Q58.74 69.44 58.74 67.59L58.74 67.59Q58.74 65.90 59.43 64.71Q60.13 63.51 61.20 62.74L61.20 62.74Q63.44 64.05 66.29 65.05Q69.13 66.05 72.91 66.05L72.91 66.05Q78.37 66.05 78.37 62.97L78.37 62.97Q78.37 61.67 77.41 60.97Q76.45 60.28 74.14 59.74L74.14 59.74L71.06 59.05Q64.75 57.74 61.67 55.01Q58.59 52.27 58.59 47.34L58.59 47.34Q58.59 41.88 63.01 38.68Q67.44 35.49 74.91 35.49L74.91 35.49Q77.68 35.49 80.15 35.91Q82.61 36.33 84.38 37.18Q86.15 38.03 87.19 39.30Q88.23 40.57 88.23 42.26L88.23 42.26Q88.23 43.80 87.61 45.00Q87.00 46.19 86.00 46.96L86.00 46.96Q85.38 46.57 84.19 46.11Q82.99 45.65 81.61 45.26Q80.22 44.88 78.68 44.65Q77.14 44.42 75.83 44.42L75.83 44.42Q73.14 44.42 71.64 45.15Q70.14 45.88 70.14 47.34L70.14 47.34Q70.14 48.42 70.98 49.04Q71.83 49.65 74.06 50.19L74.06 50.19L76.99 50.89Q84.00 52.43 87.00 55.35Q90.00 58.28 90.00 62.90Z" fill="#fff"></path></svg>