<svg xmlns="http://www.w3.org/2000/svg" xmlns:xlink="http://www.w3.org/1999/xlink" width="230" zoomAndPan="magnify" viewBox="0 0 172.5 62.999997" height="84" preserveAspectRatio="xMidYMid meet" version="1.0"><defs><g/><clipPath id="f3755a7c58"><path d="M 0.457031 0.511719 L 52 0.511719 L 52 62.761719 L 0.457031 62.761719 Z M 0.457031 0.511719 " clip-rule="nonzero"/></clipPath></defs><path fill="#ffffff" d="M 27.78125 15.246094 C 27.414062 15.15625 27.269531 15.40625 27.21875 15.746094 L 27.355469 17.707031 C 27.667969 17.945312 27.714844 15.914062 29.214844 16.675781 L 30.519531 16.148438 C 29.339844 15.585938 28.742188 15.949219 28.621094 15.738281 C 28.613281 15.625 29.007812 15.5 29.480469 15.433594 L 30.949219 15.722656 C 30.570312 15.34375 30.066406 14.941406 29.453125 14.96875 Z M 27.78125 15.246094 " fill-opacity="1" fill-rule="evenodd"/><g clip-path="url(#f3755a7c58)"><path fill="#ffffff" d="M 51.980469 49.074219 C 51.980469 49.074219 50.671875 37.378906 46.25 32.230469 C 42.339844 29.613281 38.308594 27.886719 34.539062 26.457031 L 32.433594 24.386719 C 32.433594 24.386719 32.296875 24.109375 32.398438 22.707031 C 33.042969 21.597656 33.242188 19.585938 33.242188 19.585938 C 34.078125 19.140625 34.363281 16.371094 34.289062 14.683594 C 37.085938 14.457031 37.019531 12.988281 36.632812 12.195312 L 35.039062 10.917969 C 34.917969 6.246094 32.671875 1.050781 26.503906 0.761719 C 21.277344 0.519531 18.097656 3.914062 17.960938 10.410156 C 17.941406 11.214844 16.011719 11.523438 15.789062 12.5625 C 15.789062 12.5625 15.453125 14.65625 18.441406 14.757812 C 18.351562 16.433594 18.820312 18.9375 19.625 19.714844 C 19.742188 20.171875 19.875 20.621094 20.03125 21.054688 C 20.175781 21.871094 20.375 22.515625 20.847656 23.320312 L 20.761719 24.628906 C 20.511719 24.277344 20.125 24.011719 19.558594 23.917969 L 19.445312 20.804688 C 19.253906 18.765625 18.253906 18.164062 17.488281 18.066406 L 13.039062 18.125 C 11.140625 18.34375 11.289062 20.785156 11.15625 21.769531 C 13.210938 21.808594 15.835938 21.480469 15.777344 22.140625 L 15.863281 23.746094 L 14.910156 23.746094 L 14.835938 22.691406 L 11.246094 23.21875 L 11.503906 25.167969 C 12.253906 26.488281 12.632812 27.515625 12.871094 28.386719 C 10.679688 29.367188 8.640625 30.390625 7.210938 31.492188 C 4.109375 35.320312 2.613281 40.207031 0.796875 46.339844 C 0.839844 46.886719 0.472656 48.230469 0.890625 48.988281 C 0.828125 52.914062 1.324219 57.5625 5.773438 61.664062 C 10.636719 62.023438 16.726562 60.871094 21.679688 57.0625 L 31.902344 57.0625 C 35.488281 59.757812 37.902344 60.363281 45.710938 62.664062 C 48.691406 62.765625 52.1875 54.039062 51.265625 50.6875 C 51.863281 50.300781 52.066406 49.75 51.980469 49.074219 Z M 31.859375 21.453125 C 31.5 22.6875 31.113281 23.316406 29.019531 24.765625 C 28.738281 24.960938 28.402344 25.125 28.042969 25.253906 C 27.035156 25.28125 25.632812 25.347656 25.632812 24.234375 C 25.632812 24.230469 25.691406 23.800781 25.691406 23.800781 C 25.695312 23.609375 25.820312 23.519531 25.957031 23.429688 C 26.664062 23.59375 27.339844 23.398438 28.023438 22.714844 C 27.40625 22.894531 26.792969 22.96875 26.113281 22.941406 C 25.804688 22.832031 25.457031 22.679688 25.457031 22.378906 C 25.457031 22.195312 25.664062 21.949219 25.976562 21.949219 C 26.777344 21.964844 27.675781 21.96875 28.511719 21.796875 C 28.910156 21.71875 28.21875 21.46875 28.21875 21.46875 L 26.6875 21.25 L 26.425781 21.292969 C 26.320312 21.105469 26.4375 20.835938 26.414062 20.46875 L 27.984375 20.097656 L 27 19.4375 C 26.65625 19.585938 26.328125 19.613281 26.035156 19.5625 C 25.753906 19.46875 25.480469 19.441406 25.480469 18.855469 C 25.480469 18.53125 25.722656 16.710938 25.722656 15.9375 C 25.722656 14.769531 23.5625 15.082031 22.738281 14.46875 C 26.132812 14.476562 30.992188 14.351562 32.496094 13.960938 C 32.546875 17.734375 32.578125 18.972656 31.859375 21.453125 Z M 25.96875 30.121094 C 25.964844 30.117188 25.964844 30.117188 25.964844 30.117188 C 25.789062 29.472656 25.300781 28.648438 25.300781 27.757812 C 25.300781 27.3125 25.378906 26.972656 25.511719 26.707031 C 25.734375 26.742188 25.957031 26.757812 26.183594 26.757812 C 28.332031 26.734375 30.195312 24.96875 30.933594 24.382812 L 30.78125 26.105469 C 29.21875 27.269531 27.769531 29.0625 25.96875 30.121094 Z M 25.101562 10.015625 C 24.917969 7.144531 25.132812 3.832031 24.855469 1.980469 C 24.921875 1.96875 24.996094 1.960938 25.066406 1.953125 C 25.15625 1.941406 25.25 1.933594 25.34375 1.925781 C 25.597656 1.90625 25.863281 1.890625 26.136719 1.890625 C 26.578125 1.886719 27 1.914062 27.402344 1.972656 L 27.929688 9.875 C 28.546875 11.738281 29.648438 12.394531 30.378906 12.117188 C 29.660156 11.8125 28.898438 11.101562 28.609375 9.652344 L 28.300781 2.167969 C 31.785156 3.171875 33.5625 6.789062 33.734375 11.214844 C 34.269531 12.078125 35.707031 11.914062 35.601562 13 C 35.601562 13 29.292969 13.441406 26.449219 13.429688 C 24.808594 13.421875 23.410156 13.320312 22.148438 13.207031 C 22.382812 12.46875 25.171875 11.164062 25.101562 10.015625 Z M 13.460938 19.503906 C 12.988281 20 12.863281 20.480469 12.710938 20.960938 C 12.449219 20.992188 12.289062 21.015625 12.289062 21.015625 C 12.292969 20.691406 12.484375 19.527344 13.273438 19.027344 L 17.394531 19 C 17.953125 19.027344 18.484375 20.105469 18.484375 20.976562 L 18.617188 23.859375 L 17.96875 23.863281 C 17.941406 21.855469 17.980469 20.039062 17.546875 19.613281 C 17.085938 19.367188 14.644531 19.460938 13.460938 19.503906 Z M 12.183594 23.644531 L 14.144531 23.335938 L 14.171875 23.925781 L 12.210938 24.238281 Z M 12.742188 25.285156 L 14.890625 24.738281 L 19.117188 24.761719 C 20.164062 25 20.382812 27.289062 18.964844 27.523438 L 16.671875 27.648438 L 16.75 30.304688 L 18.429688 30.335938 C 18.976562 30.789062 19.015625 31.347656 18.203125 32.085938 L 17.144531 33.316406 L 17.1875 36.890625 L 14.007812 37.011719 L 14.167969 30.300781 C 13.925781 29.210938 13.550781 27.324219 12.742188 25.285156 Z M 19.496094 33.898438 C 19.308594 34.425781 18.410156 34.351562 18.03125 33.957031 L 18 33.542969 L 19.234375 32.179688 L 19.46875 31.738281 Z M 19.128906 29.332031 L 17.5625 29.351562 L 17.542969 28.371094 L 19.109375 28.394531 Z M 16.25 40.085938 L 12.59375 39.972656 C 12.132812 39.484375 11.949219 38.375 12.59375 38.015625 L 17.902344 38.121094 C 20.191406 38.101562 23.28125 41.394531 25.007812 43.277344 L 23.820312 43.589844 C 20.941406 45.113281 19.6875 45.800781 17.261719 46.78125 L 13.40625 47.398438 C 12.660156 47.003906 12.394531 46.0625 12.824219 45.796875 L 15.859375 45.691406 C 16.296875 45.492188 16.304688 45.328125 15.839844 45.117188 L 12.863281 45.152344 C 12.382812 45 12.085938 43.988281 12.699219 43.425781 L 16.140625 43.3125 C 16.574219 43.074219 16.578125 42.726562 16.207031 42.570312 L 12.613281 42.636719 C 11.890625 41.800781 12.175781 41.0625 12.636719 40.660156 L 16.230469 40.8125 C 16.621094 40.695312 16.640625 40.425781 16.25 40.085938 Z M 6.132812 60.058594 C 3.316406 56.683594 2.671875 53.550781 2.722656 48.4375 C 4.523438 47.339844 5.59375 46.289062 11.484375 47.214844 C 10.84375 48.175781 10.460938 48.527344 8.414062 48.875 C 14.238281 49.476562 23.335938 47.128906 30.5 41.683594 C 31.445312 41.242188 33.058594 41.515625 35.921875 43.109375 C 36.949219 44.140625 37.71875 45.128906 37.921875 46.019531 L 34.554688 46.25 L 31.8125 47.160156 C 24.136719 54.800781 16.292969 60.136719 6.132812 60.058594 Z M 46.023438 61.085938 C 36.144531 58.914062 32.992188 55.453125 28.675781 52.355469 L 35.179688 47.390625 L 44.082031 49.902344 C 43.730469 49.246094 42.886719 48.210938 40.148438 47.617188 L 40.351562 46.945312 C 43.757812 47.296875 46.460938 47.589844 50.078125 50.785156 C 50.046875 55.140625 49.066406 58.402344 46.023438 61.085938 Z M 40.261719 45.847656 C 39.796875 43.722656 39.226562 40.738281 38.476562 36.929688 C 38.101562 40.914062 38.3125 43.554688 38.777344 45.621094 C 38.582031 44.9375 38.25 43.804688 37.289062 42.367188 C 34.734375 40.691406 32.574219 39.855469 30.273438 40.542969 L 26.308594 43.023438 C 24.976562 41.824219 22.082031 38.214844 18.894531 37.089844 L 17.984375 37.082031 L 17.890625 34.703125 C 18.429688 35.222656 20.222656 35.003906 20.359375 33.96875 L 20.347656 32.976562 L 21.070312 34.953125 L 23.65625 32.6875 L 24.996094 33.828125 L 23.777344 31.203125 L 21.722656 33.136719 L 20.3125 30.390625 L 20.238281 27.984375 C 20.621094 28.011719 21.019531 27.292969 21.125 26.445312 L 24.144531 30.214844 C 24.585938 31.765625 25.488281 33.636719 25.808594 33.710938 C 26.367188 32.28125 27.222656 31.425781 27.875 30.300781 C 30.320312 28.351562 31.003906 27.015625 32.234375 25.722656 L 33.648438 27.183594 L 30.167969 33.332031 L 27.773438 31.429688 L 26.402344 33.636719 L 28 32.761719 L 30.914062 34.847656 L 34.117188 27.621094 C 37.035156 28.773438 41.832031 30.824219 45.246094 33.125 C 47.414062 35.808594 50.230469 43.585938 50.476562 48.761719 C 45.804688 46.449219 42.789062 46.367188 40.261719 45.847656 Z M 40.261719 45.847656 " fill-opacity="1" fill-rule="evenodd"/></g><g fill="#ffffff" fill-opacity="1"><g transform="translate(61.780021, 43.966034)"><g><path d="M 2.625 -24.265625 L 11.09375 -24.265625 C 14.382812 -24.265625 16.828125 -23.773438 18.421875 -22.796875 C 20.023438 -21.816406 20.828125 -20.296875 20.828125 -18.234375 C 20.828125 -16.867188 20.476562 -15.703125 19.78125 -14.734375 C 19.09375 -13.773438 18.175781 -13.160156 17.03125 -12.890625 L 17.03125 -12.71875 C 18.539062 -12.320312 19.628906 -11.65625 20.296875 -10.71875 C 20.972656 -9.789062 21.3125 -8.585938 21.3125 -7.109375 C 21.3125 -4.898438 20.484375 -3.160156 18.828125 -1.890625 C 17.179688 -0.628906 14.925781 0 12.0625 0 L 2.625 0 Z M 9.1875 -14.953125 L 11.15625 -14.953125 C 12.09375 -14.953125 12.816406 -15.144531 13.328125 -15.53125 C 13.847656 -15.925781 14.109375 -16.503906 14.109375 -17.265625 C 14.109375 -18.628906 13.082031 -19.3125 11.03125 -19.3125 L 9.1875 -19.3125 Z M 9.1875 -10.15625 L 9.1875 -5.0625 L 11.484375 -5.0625 C 13.535156 -5.0625 14.5625 -5.925781 14.5625 -7.65625 C 14.5625 -8.457031 14.285156 -9.070312 13.734375 -9.5 C 13.191406 -9.9375 12.398438 -10.15625 11.359375 -10.15625 Z M 9.1875 -10.15625 "/></g></g></g><g fill="#ffffff" fill-opacity="1"><g transform="translate(84.687542, 43.966034)"><g><path d="M 2.625 0 L 2.625 -24.265625 L 9.21875 -24.265625 L 9.21875 0 Z M 2.625 0 "/></g></g></g><g fill="#ffffff" fill-opacity="1"><g transform="translate(96.523101, 43.966034)"><g><path d="M 12.375 -14.21875 L 22.84375 -14.21875 L 22.84375 -1.125 C 20 -0.15625 16.875 0.328125 13.46875 0.328125 C 9.726562 0.328125 6.835938 -0.753906 4.796875 -2.921875 C 2.753906 -5.085938 1.734375 -8.179688 1.734375 -12.203125 C 1.734375 -16.117188 2.847656 -19.164062 5.078125 -21.34375 C 7.316406 -23.53125 10.453125 -24.625 14.484375 -24.625 C 16.003906 -24.625 17.441406 -24.476562 18.796875 -24.1875 C 20.148438 -23.894531 21.332031 -23.53125 22.34375 -23.09375 L 20.265625 -17.953125 C 18.515625 -18.804688 16.597656 -19.234375 14.515625 -19.234375 C 12.597656 -19.234375 11.113281 -18.609375 10.0625 -17.359375 C 9.019531 -16.117188 8.5 -14.34375 8.5 -12.03125 C 8.5 -9.769531 8.972656 -8.039062 9.921875 -6.84375 C 10.867188 -5.65625 12.234375 -5.0625 14.015625 -5.0625 C 14.984375 -5.0625 15.878906 -5.15625 16.703125 -5.34375 L 16.703125 -9.140625 L 12.375 -9.140625 Z M 12.375 -14.21875 "/></g></g></g><g fill="#ffffff" fill-opacity="1"><g transform="translate(121.688176, 43.966034)"><g/></g></g><g fill="#ffffff" fill-opacity="1"><g transform="translate(130.519191, 43.966034)"><g><path d="M 0.71875 7.625 C -0.476562 7.625 -1.613281 7.503906 -2.6875 7.265625 L -2.6875 2.171875 C -2.332031 2.242188 -1.957031 2.320312 -1.5625 2.40625 C -1.164062 2.488281 -0.734375 2.53125 -0.265625 2.53125 C 0.816406 2.53125 1.585938 2.203125 2.046875 1.546875 C 2.515625 0.890625 2.75 -0.226562 2.75 -1.8125 L 2.75 -24.265625 L 9.34375 -24.265625 L 9.34375 -2.375 C 9.34375 0.914062 8.625 3.40625 7.1875 5.09375 C 5.75 6.78125 3.59375 7.625 0.71875 7.625 Z M 0.71875 7.625 "/></g></g></g><g fill="#ffffff" fill-opacity="1"><g transform="translate(142.487547, 43.966034)"><g><path d="M 7.921875 -24.265625 L 7.234375 -15.5 L 2.6875 -15.5 L 2.015625 -24.265625 Z M 7.921875 -24.265625 "/></g></g></g><g fill="#ffffff" fill-opacity="1"><g transform="translate(152.41414, 43.966034)"><g><path d="M 18.5 -7.375 C 18.5 -5.863281 18.113281 -4.523438 17.34375 -3.359375 C 16.582031 -2.191406 15.484375 -1.285156 14.046875 -0.640625 C 12.609375 0.00390625 10.921875 0.328125 8.984375 0.328125 C 7.367188 0.328125 6.007812 0.21875 4.90625 0 C 3.8125 -0.226562 2.675781 -0.628906 1.5 -1.203125 L 1.5 -7.046875 C 2.75 -6.398438 4.046875 -5.894531 5.390625 -5.53125 C 6.742188 -5.175781 7.984375 -5 9.109375 -5 C 10.085938 -5 10.800781 -5.164062 11.25 -5.5 C 11.707031 -5.84375 11.9375 -6.28125 11.9375 -6.8125 C 11.9375 -7.144531 11.84375 -7.429688 11.65625 -7.671875 C 11.476562 -7.921875 11.1875 -8.171875 10.78125 -8.421875 C 10.375 -8.679688 9.296875 -9.207031 7.546875 -10 C 5.972656 -10.71875 4.789062 -11.410156 4 -12.078125 C 3.207031 -12.753906 2.617188 -13.53125 2.234375 -14.40625 C 1.847656 -15.28125 1.65625 -16.316406 1.65625 -17.515625 C 1.65625 -19.753906 2.46875 -21.5 4.09375 -22.75 C 5.726562 -24 7.96875 -24.625 10.8125 -24.625 C 13.320312 -24.625 15.882812 -24.039062 18.5 -22.875 L 16.484375 -17.8125 C 14.210938 -18.851562 12.253906 -19.375 10.609375 -19.375 C 9.753906 -19.375 9.132812 -19.222656 8.75 -18.921875 C 8.363281 -18.628906 8.171875 -18.257812 8.171875 -17.8125 C 8.171875 -17.332031 8.414062 -16.90625 8.90625 -16.53125 C 9.394531 -16.15625 10.734375 -15.472656 12.921875 -14.484375 C 15.003906 -13.535156 16.453125 -12.519531 17.265625 -11.4375 C 18.085938 -10.363281 18.5 -9.007812 18.5 -7.375 Z M 18.5 -7.375 "/></g></g></g></svg>